<svg width="80" height="80" viewBox="0 0 80 80" fill="none" xmlns="http://www.w3.org/2000/svg">
<path d="M58.8365 37.8196L65.8133 30.8414L49.1489 14.1737L42.1721 21.1519L23.7746 2.79524C20.3084 -0.671635 14.6647 -0.671635 11.1985 2.79524L2.75518 11.2402C-0.711015 14.7071 -0.711015 20.3519 2.75518 23.8188L21.1082 42.1754L0 63.3323V80H16.6644L37.8171 58.8431L56.1702 77.1998C60.3918 81.4223 66.0799 79.8667 68.7462 77.1998L77.1895 68.7549C80.6557 65.288 80.6557 59.6432 77.1895 56.1763L58.8365 37.8196ZM27.4629 35.8639L9.06544 17.5073L17.4643 9.0623L23.108 14.7071L17.8642 19.9963L24.1301 26.2634L29.4182 20.9741L35.8618 27.419L27.4629 35.8639ZM62.4804 70.9328L44.1273 52.5761L52.5706 44.1311L59.0142 50.576L53.726 55.8652L59.9919 62.1322L65.28 56.843L70.9237 62.4878L62.4804 70.9328ZM78.7004 17.9517C79.1124 17.5405 79.4392 17.0521 79.6622 16.5144C79.8852 15.9767 80 15.4003 80 14.8182C80 14.2361 79.8852 13.6597 79.6622 13.122C79.4392 12.5843 79.1124 12.0959 78.7004 11.6847L68.3018 1.28404C66.2132 -0.804978 63.3247 -0.00492855 62.036 1.28404L53.9038 9.41787L70.5682 26.0856L78.7004 17.9517Z" fill="#16151C"/>
</svg>
