<svg width="80" height="80" viewBox="0 0 80 80" fill="none" xmlns="http://www.w3.org/2000/svg">
<path d="M31.2292 54.5518L31.1875 54.5206L24.3542 50.0059L31.1875 45.4911C31.9375 44.9912 32.0208 44.1164 31.3542 43.554L31.3125 43.5228L27.6875 40.6171C26.9792 40.0547 25.8125 40.0391 25.1042 40.5546L13.0833 49.0061C12.3125 49.5528 12.3125 50.4745 13.0833 51.0057L25.1042 59.4571C25.4375 59.6915 25.8958 59.8321 26.3542 59.8321C26.8542 59.8321 27.3542 59.6758 27.6875 59.3947L31.3125 56.489C32 55.9422 31.9583 55.0674 31.2292 54.5518ZM77.0625 15.3095L59.5833 2.20269C57.7083 0.796719 55.1667 0 52.5208 0H10C4.47917 0.0156219 0 3.37434 0 7.51416V72.5015C0 76.6413 4.47917 80 10 80H70C75.5208 80 80 76.6413 80 72.5015V20.621C80 18.637 78.9375 16.7155 77.0625 15.3095ZM53.3333 8.12341L69.1875 20.0117H53.3333V8.12341ZM70 72.5015H10V7.51416H43.3333V23.761C43.3333 25.8387 45.5625 27.5103 48.3333 27.5103H70V72.5015ZM43.6667 33.4466C42.6875 33.2279 41.6875 33.6497 41.3958 34.3839L30 63.7688C29.7083 64.503 30.2708 65.2685 31.25 65.4716L36.3333 66.5807C37.3125 66.7995 38.3333 66.362 38.6042 65.6434L50 36.2429C50.2917 35.5087 49.7292 34.7432 48.75 34.5401L43.6667 33.4466ZM48.7708 45.4599L48.8125 45.4911L55.6458 50.0059L48.8125 54.5206C48.0625 55.0205 47.9792 55.8953 48.6458 56.4577L48.6875 56.489L52.3125 59.3947C53 59.9414 54.1667 59.9727 54.8958 59.4571L66.9167 51.0057C67.6875 50.4589 67.6875 49.5372 66.9167 49.0061L54.8958 40.5546C54.1667 40.0391 53 40.0547 52.3125 40.6171L48.6875 43.5228C48 44.0695 48.0417 44.9444 48.7708 45.4599Z" fill="#16151C"/>
</svg>
